<?xml version="1.0" encoding="utf-8"?>
<!-- Generator: Adobe Illustrator 22.1.0, SVG Export Plug-In . SVG Version: 6.00 Build 0)  -->
<svg version="1.1" id="logo.svg" xmlns="http://www.w3.org/2000/svg" xmlns:xlink="http://www.w3.org/1999/xlink" x="0px" y="0px"
	 viewBox="0 0 69 71" style="enable-background:new 0 0 69 71;" xml:space="preserve">
<style type="text/css">
	.st0{fill:none;stroke:#000000;stroke-width:2;}
	.st1{stroke:#000000;}
</style>
<path class="st0" d="M63.7,68.9l-28.8-55L6,68.9H63.7z"/>
<path class="st0" d="M34.5,1c18.3,0.2,33.1,15.2,32.9,33.5S52.3,67.6,33.9,67.4C15.7,67.3,1,52.4,1,34.2C1.1,15.8,16.1,0.9,34.5,1
	C34.5,1,34.5,1,34.5,1z"/>
<path id="Ellipse_1_copy_8" class="st1" d="M34.9,63.9c2,0,3.6,1.6,3.5,3.6c0,2-1.6,3.6-3.6,3.5c-2,0-3.5-1.6-3.5-3.6
	C31.3,65.4,32.9,63.8,34.9,63.9z"/>
<circle id="Ellipse_1_copy_9" cx="63" cy="67.4" r="3.6"/>
<path id="Ellipse_1_copy_11" d="M6,63.9c2,0,3.6,1.6,3.5,3.6C9.6,69.4,8,71,6,71c-2,0-3.5-1.6-3.5-3.6C2.5,65.4,4.1,63.8,6,63.9z"/>
</svg>
