<?xml version="1.0" encoding="utf-8"?>
<!-- Generator: Adobe Illustrator 22.1.0, SVG Export Plug-In . SVG Version: 6.00 Build 0)  -->
<svg fill="#fff"  version="1.1" id="Слой_1" xmlns="http://www.w3.org/2000/svg" xmlns:xlink="http://www.w3.org/1999/xlink" x="0px" y="0px"
	 viewBox="0 0 995 1024" style="enable-background:new 0 0 995 1024;" xml:space="preserve">
<title></title>
<g id="icomoon-ignore">
</g>
<g>
	<g>
		<path d="M942.2,1007.5H63.4l439.4-838.7L942.2,1007.5z M111,978.7h783.5L502.8,230.9L111,978.7z"/>
	</g>
</g>
<g>
	<g>
		<path d="M493.5,986.9c-66.6,0-131.2-13-192.1-38.8c-58.8-24.9-111.5-60.4-156.9-105.8c-45.3-45.3-80.9-98.1-105.8-156.9
			C13,624.7,0,560.1,0,493.5c0.3-66.8,13.6-131.4,39.6-192.2c25.1-58.8,60.8-111.5,106.3-156.8c45.5-45.3,98.4-80.8,157.3-105.7
			C364.1,13,428.8,0,495.5,0l2.2,0c66.2,0.6,130.3,14,190.6,40c58.3,25.1,110.6,60.7,155.5,106c44.9,45.3,80.1,97.9,104.7,156.4
			C974,362.9,987,427.2,987,493.5c0,66.6-13,131.2-38.8,192.1c-24.9,58.8-60.4,111.5-105.8,156.9c-45.3,45.3-98.1,80.9-156.9,105.8
			C624.7,973.9,560.1,986.9,493.5,986.9z M495.5,28.8C239.3,28.8,30,237.3,28.8,493.5c0,256.1,208.4,464.6,464.6,464.6
			s464.6-208.4,464.6-464.6c0-254-206.7-462.4-460.7-464.6L495.5,28.8z"/>
	</g>
</g>
<g>
	<g>
		<path d="M502.8,921c28.3,0.2,51.1,23.2,51.1,51.5c0,28.5-23.1,51.5-51.5,51.5s-51.5-23.1-51.5-51.5l0,0
			C451,944,474.1,921,502.6,921C502.6,921,502.7,921,502.8,921L502.8,921L502.8,921z"/>
	</g>
</g>
<g>
	<g>
		<path d="M958.8,972.5c0,28.8-23.3,52.1-52.1,52.1s-52.1-23.3-52.1-52.1s23.3-52.1,52.1-52.1S958.8,943.8,958.8,972.5L958.8,972.5z
			"/>
	</g>
</g>
<g>
	<g>
		<path d="M87.2,921c28.3,0.2,51.1,23.2,51.1,51.5c0,28.5-23.1,51.5-51.5,51.5s-51.5-23.1-51.5-51.5l0,0C35.4,944,58.5,921,87,921
			C87,921,87.1,921,87.2,921L87.2,921L87.2,921z"/>
	</g>
</g>
</svg>
